<?xml version="1.0" standalone="no"?>
<!DOCTYPE svg PUBLIC "-//W3C//DTD SVG 20010904//EN"
 "http://www.w3.org/TR/2001/REC-SVG-20010904/DTD/svg10.dtd">
<svg version="1.0" xmlns="http://www.w3.org/2000/svg"
 width="6000.000000pt" height="3940.000000pt" viewBox="0 0 6000.000000 3940.000000"
 preserveAspectRatio="xMidYMid meet">

<g transform="translate(0.000000,3940.000000) scale(0.100000,-0.100000)"
fill="#000000" stroke="none">
<path d="M0 20840 l0 -18560 72 53 c40 28 90 72 112 96 73 78 215 167 321 201
22 7 81 32 130 55 119 55 171 72 285 89 53 8 117 25 145 39 74 35 290 105 365
117 36 5 108 10 161 10 58 0 116 6 149 16 87 26 229 97 311 156 42 30 91 61
110 70 19 9 70 33 114 53 44 21 118 51 165 67 77 27 157 66 185 89 6 4 48 27
94 49 45 23 117 62 159 88 131 81 202 106 360 127 65 9 146 22 182 30 36 7
101 21 145 30 44 9 111 23 150 31 38 9 126 20 195 24 69 5 186 18 260 29 111
17 187 20 428 21 288 0 293 0 351 25 32 13 94 34 137 46 44 12 117 32 164 46
47 13 120 30 163 38 43 8 82 17 86 19 4 3 77 14 162 26 138 19 188 21 469 17
274 -3 322 -6 370 -22 51 -18 105 -19 795 -23 773 -4 858 0 955 39 161 65 243
93 300 103 48 9 83 24 135 57 91 60 189 98 295 115 84 14 128 27 373 104 70
23 153 48 184 56 32 8 84 32 118 53 116 73 271 120 405 121 56 0 185 18 320
45 41 8 111 14 155 15 61 0 100 7 165 29 159 54 228 72 317 82 121 14 194 34
288 79 114 53 162 67 315 90 226 34 312 50 380 69 91 27 119 32 228 41 155 13
308 40 437 77 30 9 135 18 265 24 241 10 255 12 325 43 160 73 195 76 859 76
626 0 636 1 726 56 65 39 174 77 265 91 50 7 119 22 155 32 85 25 108 30 215
41 103 10 178 30 250 64 70 32 139 54 213 65 35 6 92 21 126 35 75 30 131 43
246 56 47 5 110 17 140 26 46 15 118 18 440 24 320 5 392 8 426 22 49 19 164
38 232 38 95 0 108 7 138 69 60 123 206 233 349 261 39 8 88 29 140 61 44 27
84 49 88 49 4 0 28 16 54 36 27 21 64 44 83 53 19 9 55 31 80 50 76 57 137 77
390 130 135 29 290 67 345 85 55 18 145 41 200 51 55 10 119 24 143 31 23 8
49 14 56 14 7 0 38 11 67 24 30 13 70 27 89 31 19 4 84 31 145 60 150 72 194
85 310 96 234 22 287 29 416 57 104 22 158 40 230 76 92 45 139 62 264 92 33
8 87 24 119 35 33 11 116 26 185 33 74 8 150 23 186 36 88 32 217 42 665 49
462 7 422 0 600 100 25 14 65 41 90 60 69 52 132 76 293 110 113 24 173 31
256 31 118 0 171 7 171 22 0 14 78 178 100 208 20 29 40 124 40 190 0 105 39
250 100 375 66 135 65 126 79 460 7 174 12 208 55 405 58 261 83 319 175 411
79 79 161 121 280 143 106 20 164 20 254 0 60 -14 82 -15 135 -5 97 18 882 28
963 12 109 -21 185 -64 272 -154 134 -136 184 -234 194 -377 3 -41 14 -102 26
-135 19 -53 22 -90 27 -301 l5 -242 91 -61 c207 -138 404 -361 501 -566 48
-102 157 -184 245 -185 15 0 45 6 65 14 21 8 85 29 143 47 58 18 137 47 175
65 76 35 153 54 216 54 44 0 95 35 168 114 62 66 144 148 221 221 41 39 95 95
120 125 45 54 175 146 254 180 23 9 80 26 126 36 68 14 101 28 168 71 133 86
232 128 377 158 l130 28 91 96 c50 53 136 133 190 178 147 122 246 203 259
211 33 22 119 138 148 202 19 41 50 95 68 120 19 25 54 81 78 125 24 44 63
112 86 150 24 39 46 89 50 112 4 23 32 91 63 150 l57 108 5 565 c5 487 8 572
22 615 45 137 72 309 79 500 4 105 12 231 18 280 9 83 17 160 41 385 5 47 14
132 19 190 6 58 15 123 21 145 6 22 15 87 21 145 6 58 15 143 20 190 5 47 12
164 15 260 5 154 3 186 -15 267 -14 61 -21 128 -21 195 0 59 -7 131 -16 168
-9 36 -20 110 -25 165 -6 55 -15 138 -20 185 -6 47 -14 353 -19 680 -5 327
-12 620 -15 650 -4 30 -16 67 -26 81 -49 69 -102 275 -120 464 -6 55 -14 138
-19 185 -5 47 -13 130 -19 185 -5 55 -16 133 -25 173 -13 57 -16 136 -16 362
0 305 5 356 47 450 17 38 27 86 33 155 5 55 19 143 31 195 21 87 23 118 22
370 -1 151 -5 460 -11 685 -8 374 -11 417 -31 490 -21 78 -35 217 -47 505 -4
88 -2 130 11 180 9 36 21 112 25 170 9 114 20 155 77 276 l37 79 4 160 c5 183
-8 281 -44 335 -14 20 -34 63 -46 96 -22 56 -23 79 -31 514 -5 250 -9 862 -10
1360 -1 736 1 927 13 1025 10 82 14 196 12 360 -9 743 1 1126 32 1268 14 60
16 103 12 185 -3 59 -10 186 -16 282 -5 96 -14 204 -20 240 -6 36 -14 135 -16
220 -5 134 -3 161 12 200 20 49 23 198 9 398 -6 85 -4 118 13 195 11 50 30
136 42 189 19 87 20 100 6 125 -33 66 -60 163 -66 248 -4 50 -15 110 -25 135
-13 36 -16 70 -13 175 3 112 7 136 27 174 19 36 21 52 16 95 -4 28 -13 62 -20
76 -35 70 -45 170 -45 429 0 274 7 320 79 581 17 62 21 104 21 237 0 134 4
182 25 280 14 65 32 134 41 153 13 31 14 84 10 385 -10 636 -28 980 -56 1080
-14 49 -28 225 -39 490 -7 151 -14 221 -31 285 -24 94 -39 258 -46 513 -5 155
-3 177 22 295 27 131 42 172 76 209 20 22 20 22 -1 89 -15 49 -21 94 -21 163
0 91 -12 149 -42 204 -30 58 -40 507 -21 957 7 167 12 211 27 239 16 30 17 42
6 115 -6 44 -15 103 -21 129 -5 27 -9 144 -9 260 1 175 4 219 18 252 13 32 16
74 17 210 0 151 -3 184 -28 297 -27 118 -28 140 -25 300 l3 173 48 91 47 90 0
148 c0 114 -4 154 -16 177 -28 55 -36 167 -45 624 -5 248 -11 516 -15 597 -6
160 1 203 41 262 l24 36 -15264 0 -15265 0 0 -18560z"/>
<path d="M32291 39365 c9 -33 7 -401 -6 -1115 -5 -252 -4 -282 15 -363 11 -49
20 -124 20 -167 0 -44 9 -123 19 -177 35 -175 41 -241 41 -411 0 -131 -5 -190
-20 -262 -16 -76 -20 -132 -20 -299 -1 -148 -5 -223 -16 -266 -39 -159 -45
-285 -25 -525 6 -74 16 -200 21 -280 11 -167 21 -247 37 -275 6 -11 18 -56 27
-101 24 -123 23 -930 -2 -989 -29 -70 -20 -640 17 -1010 9 -93 21 -135 70
-245 73 -161 86 -251 85 -580 -1 -223 -9 -386 -30 -578 -5 -44 -3 -57 14 -75
29 -32 43 -63 64 -142 46 -167 58 -261 58 -437 0 -139 -3 -164 -25 -232 -34
-104 -96 -218 -151 -279 l-29 -32 7 -110 c4 -60 12 -166 17 -235 6 -69 14
-157 17 -196 4 -41 1 -95 -5 -125 -8 -38 -12 -235 -12 -649 0 -327 -3 -611 -7
-630 -6 -26 -4 -43 9 -65 50 -88 53 -110 61 -505 4 -206 13 -510 19 -675 17
-464 16 -1018 -1 -1155 -9 -70 -14 -204 -14 -340 0 -205 5 -278 35 -540 5 -47
14 -222 19 -390 11 -339 20 -456 44 -545 21 -79 21 -333 1 -425 -8 -36 -19
-112 -24 -170 -6 -58 -17 -127 -25 -155 -8 -27 -29 -125 -47 -218 -26 -135
-30 -180 -25 -235 4 -37 11 -107 15 -157 12 -116 46 -271 75 -338 13 -29 33
-99 45 -156 19 -92 21 -138 21 -400 0 -324 1 -330 73 -491 28 -64 57 -185 67
-285 4 -38 15 -90 25 -115 22 -59 15 -140 -17 -206 -16 -31 -27 -74 -31 -119
-3 -38 -12 -92 -21 -120 -8 -27 -33 -140 -56 -250 -39 -195 -41 -205 -40 -396
0 -213 13 -308 55 -402 12 -29 28 -79 34 -112 7 -33 21 -86 32 -117 10 -32 21
-83 25 -115 3 -32 12 -89 20 -128 12 -58 14 -169 12 -630 -3 -557 -3 -560 -26
-622 -27 -72 -27 -68 -12 -203 6 -58 15 -204 20 -325 4 -121 13 -238 19 -260
6 -22 14 -121 17 -220 4 -99 13 -207 21 -240 20 -86 29 -416 14 -497 -18 -89
-63 -178 -126 -246 l-54 -59 35 -89 c19 -49 41 -123 49 -164 8 -41 30 -142 49
-225 l36 -150 0 -565 c0 -494 2 -571 16 -610 10 -27 20 -102 25 -190 5 -80 14
-192 21 -250 11 -98 14 -353 7 -690 -4 -177 10 -311 51 -495 23 -97 35 -184
41 -285 15 -252 24 -317 93 -650 86 -415 117 -515 201 -651 36 -57 65 -107 65
-111 0 -4 16 -29 36 -55 40 -52 96 -168 121 -248 8 -27 25 -75 38 -105 12 -31
33 -105 46 -165 12 -61 30 -121 39 -135 9 -14 32 -54 49 -90 18 -36 41 -74 51
-85 40 -45 128 -198 144 -252 26 -88 47 -134 84 -182 42 -56 55 -82 81 -161
12 -35 39 -94 60 -130 22 -36 52 -102 67 -147 27 -82 29 -85 151 -205 90 -89
140 -148 180 -213 31 -49 70 -104 86 -122 l29 -31 182 -6 c450 -13 643 -42
805 -118 50 -23 90 -36 100 -32 62 26 1162 39 1376 17 72 -8 147 -24 215 -46
58 -19 217 -58 354 -87 138 -28 274 -63 304 -76 30 -13 60 -24 67 -24 7 0 35
-6 61 -14 77 -23 264 -56 315 -56 26 0 91 -9 144 -20 53 -11 119 -20 145 -20
26 0 92 -9 145 -20 53 -11 116 -20 140 -20 24 0 87 -9 140 -20 59 -12 136 -20
196 -20 119 0 268 -30 356 -72 35 -16 89 -54 122 -83 l59 -55 1881 0 c1315 0
1903 -3 1953 -11 39 -6 95 -19 126 -30 39 -13 84 -19 151 -19 162 -1 317 -40
425 -107 57 -37 110 -53 221 -69 112 -16 174 -34 256 -74 30 -15 73 -30 95
-34 21 -4 68 -16 103 -28 l64 -21 76 27 c118 40 179 45 449 39 233 -6 253 -5
318 15 126 38 192 43 449 33 173 -7 255 -14 295 -26 42 -13 119 -19 325 -25
325 -9 390 -18 554 -77 282 -100 235 -93 606 -93 281 -1 350 -4 465 -21 74
-12 227 -24 340 -29 212 -8 267 -18 377 -64 32 -13 81 -26 109 -30 27 -3 95
-21 150 -40 75 -25 124 -35 199 -39 55 -4 125 -14 155 -23 34 -10 119 -19 220
-24 201 -9 252 -20 390 -83 127 -57 199 -80 297 -93 71 -10 148 -31 241 -64
75 -27 169 -54 207 -60 64 -10 101 -19 265 -66 30 -9 81 -29 114 -45 32 -16
74 -29 95 -29 107 0 226 -32 351 -95 47 -23 110 -50 140 -60 119 -38 226 -102
320 -191 35 -33 68 -54 90 -59 19 -3 58 -13 85 -20 28 -8 91 -19 141 -24 51
-6 111 -19 135 -28 38 -15 100 -18 434 -23 335 -6 398 -9 445 -24 30 -10 98
-20 150 -23 93 -4 98 -3 221 40 69 25 158 50 197 56 90 14 774 15 862 1 83
-14 145 -34 245 -80 44 -21 116 -52 160 -70 156 -64 269 -152 364 -282 37 -51
72 -86 113 -113 33 -21 109 -83 169 -138 93 -85 123 -120 203 -241 144 -217
175 -318 176 -569 0 -152 -12 -250 -41 -335 -13 -38 -19 -83 -19 -146 0 -50
-5 -120 -10 -156 -19 -119 -123 -400 -195 -532 -13 -22 -15 -173 -15 -1095 0
-1197 -4 -1127 72 -1210 49 -54 118 -163 146 -228 26 -63 61 -188 78 -280 34
-182 -5 -389 -102 -543 l-34 -52 1620 0 1620 0 0 19700 0 19700 -13859 0
-13859 0 9 -35z"/>
<path d="M34088 61 c-46 -5 -60 -11 -78 -34 l-21 -27 135 0 c99 0 136 3 136
12 0 9 3 9 12 0 8 -8 63 -12 188 -11 96 0 170 3 163 5 -7 3 -10 11 -7 19 4 10
-6 16 -33 20 -21 3 -60 11 -86 16 -51 10 -313 10 -409 0z"/>
<path d="M34710 10 c-12 -8 -9 -10 13 -10 16 0 26 4 22 10 -8 12 -16 12 -35 0z"/>
</g>
</svg>
